<svg width="334" height="79" viewBox="0 0 334 79" fill="none" xmlns="http://www.w3.org/2000/svg">
<rect width="334" height="79" fill="black"/>
<path d="M80.6464 60.7778V59.9784C81.6412 59.8007 82.3695 59.6053 82.8314 59.3921C83.3288 59.1434 83.8262 58.7526 84.3236 58.2197C85.4961 56.834 86.0823 54.8799 86.0823 52.3574V30.88C86.0823 28.4641 85.656 26.6521 84.8033 25.4441C83.9861 24.2361 82.6182 23.49 80.6996 23.2057V22.353H100.951C105.428 22.353 108.892 22.8505 111.343 23.8453C114.648 25.2309 117.312 27.5581 119.338 30.8267C121.363 34.0954 122.375 37.7016 122.375 41.6453C122.375 46.4773 120.865 50.652 117.845 54.1694C115.891 56.4432 113.6 58.1131 110.97 59.179C108.377 60.2448 105.197 60.7778 101.431 60.7778H80.6464ZM98.0201 23.5255H95.6219V52.5705C95.6219 53.3877 95.6752 54.1516 95.7817 54.8622C95.8883 55.5728 96.0482 56.3544 96.2614 57.2071C96.6877 58.8059 97.949 59.6053 100.045 59.6053C101.893 59.6053 103.723 58.948 105.534 57.6334C107.382 56.2833 108.856 54.5246 109.958 52.3574C110.633 50.9717 111.148 49.3907 111.503 47.6142C111.894 45.8023 112.09 43.9547 112.09 42.0717C112.09 39.8689 111.823 37.6661 111.29 35.4633C110.757 33.225 109.993 31.1998 108.999 29.3878C108.039 27.5403 106.583 26.1014 104.628 25.071C102.71 24.0407 100.507 23.5255 98.0201 23.5255ZM123.557 48.4136C123.557 44.5054 124.871 41.3611 127.501 38.9807C130.165 36.5647 133.647 35.3567 137.946 35.3567C142.21 35.3567 145.656 36.5647 148.285 38.9807C150.95 41.3611 152.282 44.4699 152.282 48.3071C152.282 52.1442 150.95 55.2708 148.285 57.6867C145.656 60.0672 142.21 61.2574 137.946 61.2574C133.683 61.2574 130.219 60.0672 127.554 57.6867C124.889 55.3063 123.557 52.2153 123.557 48.4136ZM137.946 36.5292C136.028 36.5292 134.624 37.4884 133.736 39.407C132.848 41.2901 132.404 44.2923 132.404 48.4136C132.404 52.4284 132.848 55.3773 133.736 57.2604C134.624 59.1434 136.028 60.085 137.946 60.085C139.794 60.085 141.162 59.1434 142.05 57.2604C142.938 55.3418 143.382 52.3574 143.382 48.3071C143.382 44.2212 142.956 41.2368 142.103 39.3537C141.25 37.4707 139.865 36.5292 137.946 36.5292ZM175.275 51.7179L176.128 51.931C175.666 53.8496 175.204 55.2708 174.743 56.1945C173.073 59.5698 170.017 61.2574 165.576 61.2574C161.952 61.2574 158.968 60.085 156.623 57.74C154.278 55.3951 153.105 52.3751 153.105 48.6801C153.105 44.7719 154.331 41.5743 156.783 39.0873C159.234 36.6002 162.414 35.3567 166.322 35.3567C168.88 35.3567 171.012 35.9074 172.717 37.0088C174.423 38.1102 175.275 39.4958 175.275 41.1657C175.275 42.1961 174.956 43.031 174.316 43.6705C173.712 44.2745 172.895 44.5765 171.865 44.5765C170.763 44.5765 169.84 44.2212 169.093 43.5106C168.347 42.8 167.974 41.8941 167.974 40.7927C167.974 40.2952 168.045 39.8156 168.187 39.3537L168.347 38.0214C168.347 37.0266 167.885 36.5292 166.962 36.5292C165.434 36.5292 164.173 37.524 163.178 39.5136C162.219 41.4677 161.739 44.0258 161.739 47.1879C161.739 51.025 162.325 53.9739 163.498 56.0346C164.706 58.0598 166.429 59.0724 168.667 59.0724C170.408 59.0724 171.776 58.5217 172.771 57.4203C173.765 56.3189 174.6 54.4181 175.275 51.7179ZM175.028 60.7778L175.081 60.085C175.969 59.9784 176.591 59.8362 176.946 59.6586C177.302 59.481 177.657 59.1257 178.012 58.5927C178.403 58.0598 178.652 57.5091 178.758 56.9406C178.865 56.3722 178.918 55.4306 178.918 54.1161V30.2405L178.812 27.6291C178.812 26.3856 178.723 25.5507 178.545 25.1243C178.367 24.6624 177.977 24.2183 177.373 23.792C176.804 23.3656 176.04 23.1525 175.081 23.1525V22.4063L186.966 20.8608H187.339V47.1346L191.495 43.6705C193.343 42.0717 194.267 40.7216 194.267 39.6202C194.267 38.3767 193.361 37.4529 191.549 36.8489L191.602 36.1561H203.806L203.86 37.0088C202.048 37.4352 200.396 38.0391 198.903 38.8208C198.051 39.3537 197.269 39.9222 196.558 40.5262C195.848 41.0946 194.924 41.9651 193.787 43.1376L201.834 55.7682C202.829 57.2604 203.629 58.2907 204.233 58.8592C204.837 59.3921 205.601 59.783 206.524 60.0317V60.7778H191.549V60.085C192.97 59.8362 193.681 59.179 193.681 58.1131C193.681 57.7933 193.609 57.4025 193.467 56.9406C193.325 56.4787 193.148 56.0524 192.934 55.6616L188.351 47.934L187.339 48.84V54.1161C187.339 56.0346 187.534 57.4558 187.925 58.3796C188.316 59.2678 188.991 59.8362 189.95 60.085V60.7778H175.028ZM199.632 37.0088V36.1561H215.3V37.0088C214.305 37.1864 213.666 37.3996 213.381 37.6483C212.813 38.0747 212.529 38.6787 212.529 39.4603C212.529 40.1354 212.902 41.3078 213.648 42.9777L217.591 51.6646L221.375 42.9777C222.05 41.4855 222.388 40.3663 222.388 39.6202C222.388 38.7675 222.015 38.1102 221.269 37.6483C220.913 37.4352 220.096 37.2397 218.817 37.0621V36.1561H227.451V36.9022C226.811 37.1154 226.367 37.3108 226.118 37.4884C225.905 37.6306 225.568 37.9681 225.106 38.501C224.68 38.9984 224.306 39.5314 223.987 40.0998C223.667 40.6683 223.241 41.6098 222.708 42.9244L214.927 60.5113C214.749 60.9021 214.589 61.1686 214.447 61.3107C214.341 61.4884 214.092 61.5772 213.701 61.5772C213.168 61.5772 212.76 61.2574 212.475 60.6179L204.535 43.1376C203.611 40.9703 202.758 39.4781 201.976 38.6609C201.337 37.9148 200.555 37.3641 199.632 37.0088ZM223.304 60.7778V60.085C224.193 60.0139 224.85 59.8895 225.276 59.7119C225.738 59.4987 226.147 59.1434 226.502 58.646C226.857 58.1486 227.07 57.7578 227.141 57.4736C227.212 57.1538 227.284 56.6564 227.355 55.9813C227.426 55.2708 227.461 54.6668 227.461 54.1694V44.31L227.408 41.6986C227.408 40.4907 227.319 39.6557 227.141 39.1938C226.964 38.732 226.644 38.3411 226.182 38.0214C225.72 37.6661 225.329 37.4529 225.01 37.3819C224.69 37.2753 224.175 37.222 223.464 37.222L223.411 36.5292L235.562 35.41H235.935V54.1694C235.935 55.555 235.988 56.5143 236.095 57.0472C236.201 57.5446 236.468 58.0598 236.894 58.5927C237.178 59.0191 237.534 59.3388 237.96 59.552C238.386 59.7652 239.008 59.9428 239.825 60.085V60.7778H223.304ZM226.609 26.1902C226.609 24.769 227.053 23.5788 227.941 22.6195C228.865 21.6247 229.984 21.1273 231.298 21.1273C232.684 21.1273 233.856 21.6069 234.816 22.5662C235.775 23.5255 236.255 24.7335 236.255 26.1902C236.255 27.5403 235.775 28.695 234.816 29.6543C233.856 30.6136 232.684 31.0932 231.298 31.0932C230.019 31.0932 228.918 30.6136 227.994 29.6543C227.07 28.695 226.609 27.5403 226.609 26.1902ZM265.097 45.9088H248.309L248.256 47.7741C248.256 51.3626 248.949 54.1338 250.335 56.0879C251.72 58.0065 253.692 58.9658 256.25 58.9658C258.204 58.9658 259.785 58.4151 260.993 57.3137C262.237 56.2123 263.161 54.4891 263.765 52.1442L264.671 52.3041C263.889 55.4662 262.539 57.7933 260.62 59.2855C258.737 60.7422 256.108 61.4706 252.733 61.4706C248.505 61.4706 245.218 60.3514 242.873 58.1131C240.529 55.8748 239.356 52.7482 239.356 48.7334C239.356 44.7186 240.6 41.4855 243.087 39.034C245.574 36.5825 248.913 35.3567 253.106 35.3567C257.192 35.3567 260.354 36.5647 262.592 38.9807C263.409 39.8689 263.978 40.7927 264.298 41.7519C264.653 42.7112 264.919 44.0969 265.097 45.9088ZM249.535 38.9807C249.109 39.9755 248.807 40.8282 248.629 41.5388C248.487 42.2493 248.416 43.3152 248.416 44.7364H254.651H255.93C256.321 44.7364 256.57 44.5943 256.677 44.31C256.819 44.0258 256.89 43.4929 256.89 42.7112C256.89 40.7216 256.552 39.1761 255.877 38.0747C255.202 36.9733 254.261 36.4226 253.053 36.4226C251.525 36.4226 250.352 37.2753 249.535 38.9807ZM261.17 36.8489V36.1561H276.785V36.9022C275.719 37.1154 275.027 37.3286 274.707 37.5417C274.138 37.9681 273.854 38.5721 273.854 39.3537C273.854 39.9222 273.961 40.5084 274.174 41.1124C274.529 41.8585 274.796 42.4448 274.973 42.8711L278.064 50.0125L283.66 35.8363H284.566L290.802 50.5987L293.786 42.8178C294.319 41.3966 294.585 40.3485 294.585 39.6735C294.585 39.2827 294.426 38.8208 294.106 38.2878C293.786 37.8615 293.395 37.5595 292.933 37.3819C292.507 37.2042 291.725 37.0266 290.588 36.8489V36.1561H300.021V36.8489C299.346 37.0266 298.867 37.2042 298.582 37.3819C298.298 37.524 297.907 37.8615 297.41 38.3944C296.948 38.8918 296.557 39.4425 296.237 40.0465C295.918 40.615 295.527 41.5388 295.065 42.8178L288.297 60.1915L287.924 60.9377C287.817 61.1864 287.586 61.3107 287.231 61.3107C287.018 61.3107 286.858 61.2396 286.751 61.0975C286.645 60.9909 286.485 60.6889 286.272 60.1915L280.409 47.2412L275.506 59.8185L275.027 60.8311C274.885 61.1508 274.671 61.3107 274.387 61.3107C274.174 61.3107 273.979 61.2041 273.801 60.9909C273.659 60.8133 273.463 60.4402 273.215 59.8718L266.02 42.8178C265.452 41.4677 265.025 40.5439 264.741 40.0465C264.457 39.5136 264.066 38.9274 263.568 38.2878C263.178 37.897 262.822 37.595 262.503 37.3819C262.147 37.1687 261.703 36.991 261.17 36.8489Z" fill="white"/>
<rect width="1.435" height="8.99244" transform="matrix(-0.999866 0.0163535 0.0163535 0.999866 49.603 52.3522)" fill="white"/>
<rect width="1.41986" height="5.50082" rx="0.70993" transform="matrix(-0.0163535 -0.999866 -0.999866 0.0163535 57.6414 61.2144)" fill="white"/>
<rect x="-0.225005" y="-0.217763" width="2.21414" height="8.41372" rx="1.10707" transform="matrix(-0.0163535 -0.999866 -0.999866 0.0163535 68.452 26.4888)" fill="white" stroke="white" stroke-width="0.442827"/>
<rect width="1.41986" height="5.50082" transform="matrix(-0.0163535 -0.999866 -0.999866 0.0163535 54.2937 61.2692)" fill="white"/>
<rect width="1.435" height="8.99244" transform="matrix(-0.999866 0.0163535 0.0163535 0.999866 53.1824 51.8203)" fill="white"/>
<path fill-rule="evenodd" clip-rule="evenodd" d="M57.3883 16.487C54.3507 16.5367 51.9281 19.0134 51.9773 22.019L52.0724 27.8363C52.7351 29.0167 53.233 30.2819 53.5493 31.5952C53.9898 33.4238 54.0697 35.31 53.7845 37.1459C53.4993 38.9819 52.8546 40.7317 51.8871 42.2955C50.9196 43.8592 49.6483 45.2063 48.1459 46.2598C46.6434 47.3133 44.9392 48.0526 43.1305 48.4355C41.7766 48.7221 40.384 48.8047 38.9976 48.683C39.2555 48.926 39.5232 49.1602 39.8005 49.3849C42.6382 51.6851 46.259 52.822 49.9187 52.5622C53.5783 52.3023 56.9989 50.6653 59.4773 47.9877C61.8479 45.4266 63.1843 42.0996 63.2442 38.6387L63.2522 38.6385L62.9774 21.8391C62.9283 18.8335 60.426 16.4373 57.3883 16.487Z" fill="white"/>
<path d="M50.8886 29.5462C51.6463 30.9055 52.1257 32.3998 52.2994 33.9439C52.4732 35.488 52.3378 37.0516 51.9012 38.5453C51.4645 40.0391 50.735 41.4338 49.7544 42.6499C48.7738 43.866 47.5613 44.8796 46.186 45.6328C44.8108 46.386 43.2997 46.8641 41.7392 47.0398C40.1787 47.2155 38.5992 47.0853 37.091 46.6568C35.5828 46.2282 34.1753 45.5096 32.949 44.542C31.7227 43.5744 30.7015 42.3768 29.9438 41.0175L40.4162 35.2818L50.8886 29.5462Z" fill="white"/>
</svg>
